<svg width="182" height="60" viewBox="0 0 182 60" fill="none" xmlns="http://www.w3.org/2000/svg">
<rect y="4.15414" width="5.53886" height="55.3886" rx="2.76943" fill="#9440FF"/>
<rect x="22.1555" y="4.15414" width="5.53886" height="55.3886" rx="2.76943" fill="#9440FF"/>
<rect x="44.3109" y="4.15414" width="5.53886" height="55.3886" rx="2.76943" fill="#9440FF"/>
<rect x="11.0777" width="5.53886" height="55.3886" rx="2.76943" fill="#1E2772"/>
<rect x="33.2332" width="5.53886" height="55.3886" rx="2.76943" fill="#1E2772"/>
<path d="M87.088 21.856V44H84.176V27.488L76.816 44H74.768L67.376 27.456V44H64.464V21.856H67.6L75.792 40.16L83.984 21.856H87.088ZM110.459 21.696L102.043 44H98.6825L90.2665 21.696H93.3705L100.379 40.928L107.387 21.696H110.459ZM128.564 28.224C128.564 30.08 127.924 31.6267 126.644 32.864C125.385 34.08 123.454 34.688 120.852 34.688H116.564V44H113.652V21.696H120.852C123.369 21.696 125.278 22.304 126.58 23.52C127.902 24.736 128.564 26.304 128.564 28.224ZM120.852 32.288C122.473 32.288 123.668 31.936 124.436 31.232C125.204 30.528 125.588 29.5253 125.588 28.224C125.588 25.472 124.009 24.096 120.852 24.096H116.564V32.288H120.852Z" fill="black"/>
</svg>
